<svg xmlns="http://www.w3.org/2000/svg" viewBox="0 0 24 24" fill="none" stroke="currentColor" stroke-width="2" stroke-linecap="round" stroke-linejoin="round">
  <!-- 太阳 (背景半透明) -->
  <circle cx="7" cy="7" r="3" stroke="currentColor" stroke-width="1.5" />
  <path d="M7 2V3M7 11V12M2 7H3M11 7H12" stroke="currentColor" stroke-width="1.5" opacity="0.6" />

  <!-- 椰子树干 -->
  <path d="M18 20C17.5 15.5 16 11.5 13 9" />

  <!-- 椰子树叶 -->
  <path d="M13 9C10.5 8.5 8 9.5 7 11.5" />
  <path d="M13 9C11 7 9.5 5 11 3" />
  <path d="M13 9C14.5 7 16.5 6.5 18.5 7.5" />
  <path d="M13 9C15.5 10 17 11.5 17.5 13.5" />
  <path d="M13 9C13 11 12 13 10.5 14" />

  <!-- 岛屿沙滩 -->
  <path d="M2 20C5 18 13 17 22 20" />

  <!-- 海浪 -->
  <path d="M4 22C6 21.5 8 21.5 10 22C12 22.5 14 22.5 16 22C18 21.5 20 21.5 22 22" stroke-width="1.5" opacity="0.8" />
</svg>